<svg width="302" height="71" viewBox="0 0 302 71" fill="none" xmlns="http://www.w3.org/2000/svg">
<rect x="300.5" y="0.5" width="70" height="300" transform="rotate(90 300.5 0.5)" fill="#F1F3F2"/>
<path d="M176.216 51.6534C175.801 51.6534 175.425 51.5753 175.086 51.419C174.748 51.2599 174.48 51.0312 174.281 50.733C174.082 50.4318 173.983 50.0682 173.983 49.642C173.983 49.267 174.057 48.9631 174.204 48.7301C174.352 48.4943 174.55 48.3097 174.797 48.1761C175.044 48.0426 175.317 47.9432 175.615 47.8778C175.916 47.8097 176.219 47.7557 176.523 47.7159C176.92 47.6648 177.243 47.6264 177.49 47.6009C177.74 47.5724 177.922 47.5256 178.035 47.4602C178.152 47.3949 178.21 47.2812 178.21 47.1193V47.0852C178.21 46.6648 178.095 46.3381 177.865 46.1051C177.638 45.8722 177.292 45.7557 176.829 45.7557C176.349 45.7557 175.973 45.8608 175.7 46.071C175.427 46.2812 175.236 46.5057 175.125 46.7443L174.17 46.4034C174.341 46.0057 174.568 45.696 174.852 45.4744C175.139 45.25 175.452 45.0937 175.79 45.0057C176.131 44.9148 176.466 44.8693 176.795 44.8693C177.006 44.8693 177.247 44.8949 177.52 44.946C177.795 44.9943 178.061 45.0952 178.317 45.2486C178.575 45.402 178.79 45.6335 178.96 45.9432C179.131 46.2528 179.216 46.6676 179.216 47.1875V51.5H178.21V50.6136H178.159C178.091 50.7557 177.977 50.9077 177.818 51.0696C177.659 51.2315 177.447 51.3693 177.183 51.483C176.919 51.5966 176.596 51.6534 176.216 51.6534ZM176.369 50.75C176.767 50.75 177.102 50.6719 177.375 50.5156C177.65 50.3594 177.858 50.1577 177.997 49.9105C178.139 49.6634 178.21 49.4034 178.21 49.1307V48.2102C178.167 48.2614 178.074 48.3082 177.929 48.3509C177.787 48.3906 177.622 48.4261 177.434 48.4574C177.25 48.4858 177.069 48.5114 176.893 48.5341C176.72 48.554 176.579 48.571 176.471 48.5852C176.21 48.6193 175.966 48.6747 175.738 48.7514C175.514 48.8253 175.332 48.9375 175.193 49.0881C175.057 49.2358 174.988 49.4375 174.988 49.6932C174.988 50.0426 175.118 50.3068 175.376 50.4858C175.638 50.6619 175.969 50.75 176.369 50.75ZM183.693 54.0909C183.208 54.0909 182.79 54.0284 182.441 53.9034C182.091 53.7812 181.8 53.6193 181.567 53.4176C181.337 53.2188 181.154 53.0057 181.017 52.7784L181.818 52.2159C181.909 52.3352 182.024 52.4716 182.164 52.625C182.303 52.7812 182.493 52.9162 182.735 53.0298C182.979 53.1463 183.298 53.2045 183.693 53.2045C184.222 53.2045 184.658 53.0767 185.002 52.821C185.345 52.5653 185.517 52.1648 185.517 51.6193V50.2898H185.432C185.358 50.4091 185.253 50.5568 185.117 50.733C184.983 50.9062 184.79 51.0611 184.537 51.1974C184.287 51.331 183.949 51.3977 183.523 51.3977C182.994 51.3977 182.52 51.2727 182.1 51.0227C181.682 50.7727 181.351 50.4091 181.107 49.9318C180.865 49.4545 180.744 48.875 180.744 48.1932C180.744 47.5227 180.862 46.9389 181.098 46.4418C181.334 45.9418 181.662 45.5554 182.083 45.2827C182.503 45.0071 182.989 44.8693 183.54 44.8693C183.966 44.8693 184.304 44.9403 184.554 45.0824C184.807 45.2216 185 45.3807 185.134 45.5597C185.27 45.7358 185.375 45.8807 185.449 45.9943H185.551V44.9545H186.523V51.6875C186.523 52.25 186.395 52.7074 186.139 53.0597C185.887 53.4148 185.546 53.6747 185.117 53.8395C184.691 54.0071 184.216 54.0909 183.693 54.0909ZM183.659 50.4943C184.063 50.4943 184.404 50.402 184.682 50.2173C184.96 50.0327 185.172 49.767 185.317 49.4205C185.462 49.0739 185.534 48.6591 185.534 48.1761C185.534 47.7045 185.463 47.2884 185.321 46.9276C185.179 46.5668 184.969 46.2841 184.691 46.0795C184.412 45.875 184.068 45.7727 183.659 45.7727C183.233 45.7727 182.878 45.8807 182.594 46.0966C182.313 46.3125 182.101 46.6023 181.959 46.9659C181.82 47.3295 181.75 47.733 181.75 48.1761C181.75 48.6307 181.821 49.0327 181.963 49.3821C182.108 49.7287 182.321 50.0014 182.602 50.2003C182.887 50.3963 183.239 50.4943 183.659 50.4943ZM191.108 51.6364C190.477 51.6364 189.933 51.4972 189.476 51.2188C189.021 50.9375 188.671 50.5455 188.423 50.0426C188.179 49.5369 188.057 48.9489 188.057 48.2784C188.057 47.608 188.179 47.017 188.423 46.5057C188.671 45.9915 189.014 45.5909 189.455 45.304C189.898 45.0142 190.415 44.8693 191.006 44.8693C191.347 44.8693 191.683 44.9261 192.016 45.0398C192.348 45.1534 192.651 45.3381 192.923 45.5938C193.196 45.8466 193.414 46.1818 193.575 46.5994C193.737 47.017 193.818 47.5312 193.818 48.142V48.5682H188.773V47.6989H192.796C192.796 47.3295 192.722 47 192.574 46.7102C192.429 46.4205 192.222 46.1918 191.952 46.0241C191.685 45.8565 191.369 45.7727 191.006 45.7727C190.605 45.7727 190.259 45.8722 189.966 46.071C189.676 46.267 189.453 46.5227 189.297 46.8381C189.141 47.1534 189.063 47.4915 189.063 47.8523V48.4318C189.063 48.9261 189.148 49.3452 189.318 49.6889C189.492 50.0298 189.732 50.2898 190.039 50.4688C190.345 50.6449 190.702 50.733 191.108 50.733C191.372 50.733 191.611 50.696 191.824 50.6222C192.04 50.5455 192.226 50.4318 192.382 50.2812C192.539 50.1278 192.659 49.9375 192.744 49.7102L193.716 49.983C193.614 50.3125 193.442 50.6023 193.2 50.8523C192.959 51.0994 192.661 51.2926 192.306 51.4318C191.95 51.5682 191.551 51.6364 191.108 51.6364ZM199.985 46.4205L199.081 46.6761C199.024 46.5256 198.941 46.3793 198.83 46.2372C198.722 46.0923 198.574 45.973 198.387 45.8793C198.199 45.7855 197.959 45.7386 197.666 45.7386C197.266 45.7386 196.932 45.831 196.665 46.0156C196.401 46.1974 196.269 46.429 196.269 46.7102C196.269 46.9602 196.36 47.1577 196.541 47.3026C196.723 47.4474 197.007 47.5682 197.394 47.6648L198.365 47.9034C198.95 48.0455 199.387 48.2628 199.673 48.5554C199.96 48.8452 200.104 49.2187 200.104 49.6761C200.104 50.0511 199.996 50.3864 199.78 50.6818C199.567 50.9773 199.269 51.2102 198.885 51.3807C198.502 51.5511 198.056 51.6364 197.547 51.6364C196.879 51.6364 196.327 51.4915 195.889 51.2017C195.452 50.9119 195.175 50.4886 195.058 49.9318L196.013 49.6932C196.104 50.0455 196.276 50.3097 196.529 50.4858C196.784 50.6619 197.118 50.75 197.53 50.75C197.999 50.75 198.371 50.6506 198.646 50.4517C198.925 50.25 199.064 50.0085 199.064 49.7273C199.064 49.5 198.985 49.3097 198.825 49.1562C198.666 49 198.422 48.8835 198.093 48.8068L197.002 48.5511C196.402 48.4091 195.962 48.1889 195.681 47.8906C195.402 47.5895 195.263 47.2131 195.263 46.7614C195.263 46.392 195.367 46.0653 195.574 45.7812C195.784 45.4972 196.07 45.2741 196.431 45.1122C196.794 44.9503 197.206 44.8693 197.666 44.8693C198.314 44.8693 198.823 45.0114 199.192 45.2955C199.564 45.5795 199.828 45.9545 199.985 46.4205ZM207.925 51.6193C207.362 51.6193 206.861 51.5227 206.42 51.3295C205.983 51.1364 205.635 50.8679 205.376 50.5241C205.121 50.1776 204.981 49.7756 204.959 49.3182H206.032C206.055 49.5994 206.152 49.8423 206.322 50.0469C206.493 50.2486 206.716 50.4048 206.991 50.5156C207.267 50.6264 207.572 50.6818 207.907 50.6818C208.282 50.6818 208.615 50.6165 208.905 50.4858C209.194 50.3551 209.422 50.1733 209.586 49.9403C209.751 49.7074 209.834 49.4375 209.834 49.1307C209.834 48.8097 209.754 48.527 209.595 48.2827C209.436 48.0355 209.203 47.8423 208.896 47.7031C208.589 47.5639 208.214 47.4943 207.771 47.4943H207.072V46.5568H207.771C208.118 46.5568 208.422 46.4943 208.683 46.3693C208.947 46.2443 209.153 46.0682 209.301 45.8409C209.452 45.6136 209.527 45.3466 209.527 45.0398C209.527 44.7443 209.461 44.4872 209.331 44.2685C209.2 44.0497 209.015 43.8793 208.777 43.7571C208.541 43.6349 208.263 43.5739 207.942 43.5739C207.64 43.5739 207.356 43.6293 207.089 43.7401C206.825 43.848 206.609 44.0057 206.442 44.2131C206.274 44.4176 206.183 44.6648 206.169 44.9545H205.146C205.163 44.4972 205.301 44.0966 205.559 43.7528C205.818 43.4062 206.156 43.1364 206.574 42.9432C206.994 42.75 207.456 42.6534 207.959 42.6534C208.498 42.6534 208.961 42.7628 209.348 42.9815C209.734 43.1974 210.031 43.483 210.238 43.8381C210.446 44.1932 210.55 44.5767 210.55 44.9886C210.55 45.4801 210.42 45.8991 210.162 46.2457C209.906 46.5923 209.558 46.8324 209.118 46.9659V47.0341C209.669 47.125 210.099 47.3594 210.409 47.7372C210.719 48.1122 210.873 48.5767 210.873 49.1307C210.873 49.6051 210.744 50.0312 210.486 50.4091C210.23 50.7841 209.881 51.0795 209.437 51.2955C208.994 51.5114 208.49 51.6193 207.925 51.6193ZM215.19 49.9659V44.3409H216.145V49.9659H215.19ZM212.855 47.6307V46.6761H218.48V47.6307H212.855ZM228.555 46.4205L227.651 46.6761C227.595 46.5256 227.511 46.3793 227.4 46.2372C227.292 46.0923 227.144 45.973 226.957 45.8793C226.769 45.7855 226.529 45.7386 226.237 45.7386C225.836 45.7386 225.502 45.831 225.235 46.0156C224.971 46.1974 224.839 46.429 224.839 46.7102C224.839 46.9602 224.93 47.1577 225.112 47.3026C225.294 47.4474 225.578 47.5682 225.964 47.6648L226.936 47.9034C227.521 48.0455 227.957 48.2628 228.244 48.5554C228.531 48.8452 228.674 49.2187 228.674 49.6761C228.674 50.0511 228.566 50.3864 228.35 50.6818C228.137 50.9773 227.839 51.2102 227.455 51.3807C227.072 51.5511 226.626 51.6364 226.117 51.6364C225.45 51.6364 224.897 51.4915 224.46 51.2017C224.022 50.9119 223.745 50.4886 223.629 49.9318L224.583 49.6932C224.674 50.0455 224.846 50.3097 225.099 50.4858C225.355 50.6619 225.688 50.75 226.1 50.75C226.569 50.75 226.941 50.6506 227.217 50.4517C227.495 50.25 227.634 50.0085 227.634 49.7273C227.634 49.5 227.555 49.3097 227.396 49.1562C227.237 49 226.992 48.8835 226.663 48.8068L225.572 48.5511C224.972 48.4091 224.532 48.1889 224.251 47.8906C223.972 47.5895 223.833 47.2131 223.833 46.7614C223.833 46.392 223.937 46.0653 224.144 45.7812C224.355 45.4972 224.64 45.2741 225.001 45.1122C225.365 44.9503 225.776 44.8693 226.237 44.8693C226.884 44.8693 227.393 45.0114 227.762 45.2955C228.134 45.5795 228.399 45.9545 228.555 46.4205ZM230.188 51.5V44.9545H231.16V45.9773H231.245C231.381 45.6278 231.601 45.3565 231.905 45.1634C232.209 44.9673 232.574 44.8693 233.001 44.8693C233.432 44.8693 233.792 44.9673 234.079 45.1634C234.368 45.3565 234.594 45.6278 234.756 45.9773H234.824C234.992 45.6392 235.243 45.3707 235.579 45.1719C235.914 44.9702 236.316 44.8693 236.785 44.8693C237.37 44.8693 237.849 45.0526 238.221 45.419C238.593 45.7827 238.779 46.3494 238.779 47.1193V51.5H237.773V47.1193C237.773 46.6364 237.641 46.2912 237.377 46.0838C237.113 45.8764 236.802 45.7727 236.444 45.7727C235.983 45.7727 235.627 45.9119 235.374 46.1903C235.121 46.4659 234.995 46.8153 234.995 47.2386V51.5H233.972V47.017C233.972 46.6449 233.851 46.3452 233.61 46.1179C233.368 45.8878 233.057 45.7727 232.677 45.7727C232.415 45.7727 232.171 45.8423 231.944 45.9815C231.719 46.1207 231.537 46.3139 231.398 46.5611C231.262 46.8054 231.194 47.0881 231.194 47.4091V51.5H230.188ZM242.544 51.6534C242.129 51.6534 241.753 51.5753 241.415 51.419C241.077 51.2599 240.808 51.0312 240.609 50.733C240.41 50.4318 240.311 50.0682 240.311 49.642C240.311 49.267 240.385 48.9631 240.532 48.7301C240.68 48.4943 240.878 48.3097 241.125 48.1761C241.372 48.0426 241.645 47.9432 241.943 47.8778C242.244 47.8097 242.547 47.7557 242.851 47.7159C243.248 47.6648 243.571 47.6264 243.818 47.6009C244.068 47.5724 244.25 47.5256 244.363 47.4602C244.48 47.3949 244.538 47.2812 244.538 47.1193V47.0852C244.538 46.6648 244.423 46.3381 244.193 46.1051C243.966 45.8722 243.621 45.7557 243.157 45.7557C242.677 45.7557 242.301 45.8608 242.028 46.071C241.756 46.2812 241.564 46.5057 241.453 46.7443L240.498 46.4034C240.669 46.0057 240.896 45.696 241.18 45.4744C241.467 45.25 241.78 45.0937 242.118 45.0057C242.459 44.9148 242.794 44.8693 243.123 44.8693C243.334 44.8693 243.575 44.8949 243.848 44.946C244.123 44.9943 244.389 45.0952 244.645 45.2486C244.903 45.402 245.118 45.6335 245.288 45.9432C245.459 46.2528 245.544 46.6676 245.544 47.1875V51.5H244.538V50.6136H244.487C244.419 50.7557 244.305 50.9077 244.146 51.0696C243.987 51.2315 243.775 51.3693 243.511 51.483C243.247 51.5966 242.925 51.6534 242.544 51.6534ZM242.697 50.75C243.095 50.75 243.43 50.6719 243.703 50.5156C243.979 50.3594 244.186 50.1577 244.325 49.9105C244.467 49.6634 244.538 49.4034 244.538 49.1307V48.2102C244.496 48.2614 244.402 48.3082 244.257 48.3509C244.115 48.3906 243.95 48.4261 243.763 48.4574C243.578 48.4858 243.398 48.5114 243.221 48.5341C243.048 48.554 242.907 48.571 242.8 48.5852C242.538 48.6193 242.294 48.6747 242.067 48.7514C241.842 48.8253 241.66 48.9375 241.521 49.0881C241.385 49.2358 241.317 49.4375 241.317 49.6932C241.317 50.0426 241.446 50.3068 241.704 50.4858C241.966 50.6619 242.297 50.75 242.697 50.75ZM248.385 42.7727V51.5H247.379V42.7727H248.385ZM251.233 42.7727V51.5H250.227V42.7727H251.233ZM256.45 53.9545V44.9545H257.421V45.9943H257.541C257.615 45.8807 257.717 45.7358 257.847 45.5597C257.981 45.3807 258.171 45.2216 258.419 45.0824C258.669 44.9403 259.007 44.8693 259.433 44.8693C259.984 44.8693 260.47 45.0071 260.89 45.2827C261.311 45.5582 261.639 45.9489 261.874 46.4545C262.11 46.9602 262.228 47.5568 262.228 48.2443C262.228 48.9375 262.11 49.5384 261.874 50.0469C261.639 50.5526 261.312 50.9446 260.894 51.223C260.477 51.4986 259.995 51.6364 259.45 51.6364C259.029 51.6364 258.693 51.5668 258.44 51.4276C258.187 51.2855 257.992 51.125 257.856 50.946C257.72 50.7642 257.615 50.6136 257.541 50.4943H257.455V53.9545H256.45ZM257.438 48.2273C257.438 48.7216 257.511 49.1577 257.656 49.5355C257.801 49.9105 258.012 50.2045 258.291 50.4176C258.569 50.6278 258.91 50.733 259.313 50.733C259.734 50.733 260.085 50.6222 260.366 50.4006C260.65 50.1761 260.863 49.875 261.005 49.4972C261.15 49.1165 261.222 48.6932 261.222 48.2273C261.222 47.767 261.151 47.3523 261.009 46.983C260.87 46.6108 260.659 46.3168 260.374 46.1009C260.093 45.8821 259.74 45.7727 259.313 45.7727C258.904 45.7727 258.561 45.8764 258.282 46.0838C258.004 46.2884 257.794 46.5753 257.651 46.9446C257.509 47.3111 257.438 47.7386 257.438 48.2273ZM263.762 51.5V44.9545H264.768V51.5H263.762ZM264.274 43.8636C264.078 43.8636 263.909 43.7969 263.767 43.6634C263.627 43.5298 263.558 43.3693 263.558 43.1818C263.558 42.9943 263.627 42.8338 263.767 42.7003C263.909 42.5668 264.078 42.5 264.274 42.5C264.47 42.5 264.637 42.5668 264.776 42.7003C264.919 42.8338 264.99 42.9943 264.99 43.1818C264.99 43.3693 264.919 43.5298 264.776 43.6634C264.637 43.7969 264.47 43.8636 264.274 43.8636ZM269.354 51.6364C268.724 51.6364 268.18 51.4972 267.722 51.2188C267.268 50.9375 266.917 50.5455 266.67 50.0426C266.425 49.5369 266.303 48.9489 266.303 48.2784C266.303 47.608 266.425 47.017 266.67 46.5057C266.917 45.9915 267.26 45.5909 267.701 45.304C268.144 45.0142 268.661 44.8693 269.252 44.8693C269.593 44.8693 269.93 44.9261 270.262 45.0398C270.594 45.1534 270.897 45.3381 271.17 45.5938C271.442 45.8466 271.66 46.1818 271.822 46.5994C271.983 47.017 272.064 47.5312 272.064 48.142V48.5682H267.019V47.6989H271.042C271.042 47.3295 270.968 47 270.82 46.7102C270.675 46.4205 270.468 46.1918 270.198 46.0241C269.931 45.8565 269.616 45.7727 269.252 45.7727C268.851 45.7727 268.505 45.8722 268.212 46.071C267.922 46.267 267.699 46.5227 267.543 46.8381C267.387 47.1534 267.309 47.4915 267.309 47.8523V48.4318C267.309 48.9261 267.394 49.3452 267.564 49.6889C267.738 50.0298 267.978 50.2898 268.285 50.4688C268.591 50.6449 268.948 50.733 269.354 50.733C269.618 50.733 269.857 50.696 270.07 50.6222C270.286 50.5455 270.472 50.4318 270.628 50.2812C270.785 50.1278 270.905 49.9375 270.991 49.7102L271.962 49.983C271.86 50.3125 271.688 50.6023 271.447 50.8523C271.205 51.0994 270.907 51.2926 270.552 51.4318C270.197 51.5682 269.797 51.6364 269.354 51.6364ZM276.253 51.6364C275.64 51.6364 275.111 51.4915 274.668 51.2017C274.225 50.9119 273.884 50.5128 273.645 50.0043C273.407 49.4957 273.287 48.9148 273.287 48.2614C273.287 47.5966 273.41 47.0099 273.654 46.5014C273.901 45.9901 274.245 45.5909 274.685 45.304C275.128 45.0142 275.645 44.8693 276.236 44.8693C276.697 44.8693 277.111 44.9545 277.481 45.125C277.85 45.2955 278.153 45.5341 278.388 45.8409C278.624 46.1477 278.77 46.5057 278.827 46.9148H277.822C277.745 46.6165 277.574 46.3523 277.31 46.1222C277.049 45.8892 276.697 45.7727 276.253 45.7727C275.861 45.7727 275.518 45.875 275.222 46.0795C274.93 46.2812 274.701 46.5668 274.536 46.9361C274.374 47.3026 274.293 47.733 274.293 48.2273C274.293 48.733 274.373 49.1733 274.532 49.5483C274.694 49.9233 274.921 50.2145 275.214 50.4219C275.509 50.6293 275.856 50.733 276.253 50.733C276.515 50.733 276.752 50.6875 276.965 50.5966C277.178 50.5057 277.358 50.375 277.506 50.2045C277.654 50.0341 277.759 49.8295 277.822 49.5909H278.827C278.77 49.9773 278.63 50.3253 278.405 50.6349C278.184 50.9418 277.89 51.1861 277.523 51.3679C277.16 51.5469 276.736 51.6364 276.253 51.6364ZM283.042 51.6364C282.411 51.6364 281.867 51.4972 281.41 51.2188C280.955 50.9375 280.604 50.5455 280.357 50.0426C280.113 49.5369 279.991 48.9489 279.991 48.2784C279.991 47.608 280.113 47.017 280.357 46.5057C280.604 45.9915 280.948 45.5909 281.388 45.304C281.831 45.0142 282.349 44.8693 282.939 44.8693C283.28 44.8693 283.617 44.9261 283.949 45.0398C284.282 45.1534 284.584 45.3381 284.857 45.5938C285.13 45.8466 285.347 46.1818 285.509 46.5994C285.671 47.017 285.752 47.5312 285.752 48.142V48.5682H280.706V47.6989H284.729C284.729 47.3295 284.655 47 284.508 46.7102C284.363 46.4205 284.155 46.1918 283.885 46.0241C283.618 45.8565 283.303 45.7727 282.939 45.7727C282.539 45.7727 282.192 45.8722 281.9 46.071C281.61 46.267 281.387 46.5227 281.231 46.8381C281.074 47.1534 280.996 47.4915 280.996 47.8523V48.4318C280.996 48.9261 281.081 49.3452 281.252 49.6889C281.425 50.0298 281.665 50.2898 281.972 50.4688C282.279 50.6449 282.635 50.733 283.042 50.733C283.306 50.733 283.545 50.696 283.758 50.6222C283.974 50.5455 284.16 50.4318 284.316 50.2812C284.472 50.1278 284.593 49.9375 284.678 49.7102L285.65 49.983C285.547 50.3125 285.376 50.6023 285.134 50.8523C284.893 51.0994 284.594 51.2926 284.239 51.4318C283.884 51.5682 283.485 51.6364 283.042 51.6364ZM291.918 46.4205L291.015 46.6761C290.958 46.5256 290.874 46.3793 290.763 46.2372C290.655 46.0923 290.508 45.973 290.32 45.8793C290.133 45.7855 289.893 45.7386 289.6 45.7386C289.199 45.7386 288.866 45.831 288.599 46.0156C288.334 46.1974 288.202 46.429 288.202 46.7102C288.202 46.9602 288.293 47.1577 288.475 47.3026C288.657 47.4474 288.941 47.5682 289.327 47.6648L290.299 47.9034C290.884 48.0455 291.32 48.2628 291.607 48.5554C291.894 48.8452 292.037 49.2187 292.037 49.6761C292.037 50.0511 291.93 50.3864 291.714 50.6818C291.501 50.9773 291.202 51.2102 290.819 51.3807C290.435 51.5511 289.989 51.6364 289.481 51.6364C288.813 51.6364 288.26 51.4915 287.823 51.2017C287.385 50.9119 287.108 50.4886 286.992 49.9318L287.947 49.6932C288.037 50.0455 288.209 50.3097 288.462 50.4858C288.718 50.6619 289.052 50.75 289.464 50.75C289.932 50.75 290.305 50.6506 290.58 50.4517C290.858 50.25 290.998 50.0085 290.998 49.7273C290.998 49.5 290.918 49.3097 290.759 49.1562C290.6 49 290.356 48.8835 290.026 48.8068L288.935 48.5511C288.336 48.4091 287.895 48.1889 287.614 47.8906C287.336 47.5895 287.197 47.2131 287.197 46.7614C287.197 46.392 287.3 46.0653 287.508 45.7812C287.718 45.4972 288.003 45.2741 288.364 45.1122C288.728 44.9503 289.14 44.8693 289.6 44.8693C290.248 44.8693 290.756 45.0114 291.126 45.2955C291.498 45.5795 291.762 45.9545 291.918 46.4205Z" fill="black"/>
</svg>
