<svg width="100" height="100" viewBox="0 0 100 100" fill="none" xmlns="http://www.w3.org/2000/svg">
<rect width="100" height="100" fill="#36383C"/>
<path d="M38.3182 44.7863H38.6165C41.7817 44.8195 44.3007 45.1509 46.1733 45.7806C48.0459 46.4104 49.5623 47.3053 50.7223 48.4653C51.8823 49.6253 52.9512 51.0174 53.929 52.6414C54.5256 53.6192 55.2299 54.4975 56.0419 55.2764C56.8705 56.0552 57.8234 56.6684 58.9006 57.1159C59.9777 57.5799 61.1709 57.8119 62.4801 57.8119C64.1042 57.8119 65.5128 57.4307 66.706 56.6684C67.8991 55.9061 68.8189 54.8869 69.4652 53.6109C70.1115 52.3348 70.4347 50.9179 70.4347 49.3602C70.4347 48.0013 70.1529 46.6921 69.5895 45.4326C69.026 44.1731 68.1394 43.1208 66.9297 42.2757C65.7199 41.4305 64.1373 40.9416 62.1818 40.809V34.5448C64.9991 34.6774 67.4103 35.4066 69.4155 36.7323C71.4207 38.0747 72.9536 39.8396 74.0142 42.0271C75.0748 44.2311 75.6051 46.6755 75.6051 49.3602C75.6051 52.2768 75.0251 54.8124 73.8651 56.9667C72.705 59.1376 71.1141 60.8114 69.0923 61.988C67.0706 63.1812 64.767 63.7778 62.1818 63.7778C60.3589 63.7778 58.71 63.4961 57.2351 62.9326C55.7602 62.3857 54.4427 61.5903 53.2827 60.5463C52.1226 59.5188 51.0952 58.2759 50.2003 56.8176C49.2888 55.3592 48.3277 54.1909 47.3168 53.3126C46.3224 52.4343 45.1375 51.7963 43.7621 51.3985C42.3866 51.0008 40.6714 50.7854 38.6165 50.7522H38.3182V44.7863ZM23.6023 47.9681C23.6023 46.7418 24.0414 45.6895 24.9197 44.8112C25.7981 43.9329 26.8504 43.4937 28.0767 43.4937C29.303 43.4937 30.3554 43.9329 31.2337 44.8112C32.112 45.6895 32.5511 46.7418 32.5511 47.9681C32.5511 49.1945 32.112 50.2468 31.2337 51.1251C30.3554 52.0034 29.303 52.4426 28.0767 52.4426C27.2647 52.4426 26.5189 52.2354 25.8395 51.8211C25.16 51.4234 24.6132 50.8848 24.1989 50.2053C23.8011 49.5425 23.6023 48.7967 23.6023 47.9681Z" fill="white"/>
</svg>
