<svg width="251" height="163" viewBox="0 0 251 163" fill="none" xmlns="http://www.w3.org/2000/svg">
<path d="M119.5 153.5C112.004 140.007 101.103 127.366 91 116C78.7833 122.108 60.6692 119.498 47.2222 119C39.1713 118.702 31.4619 117 23.5 117C17.9205 117 8.60233 113.358 6.94445 107.556C5.03148 100.86 4.00001 94.0983 4.00001 86.5556C4.00001 83.5114 2.96263 77.8341 4.22223 75C5.38879 72.3752 4.74003 66.075 6.22223 64.2222C7.378 62.7775 8.00001 56.4388 8.00001 54.4444C8.00001 50.5083 9.00001 46.5628 9.00001 42.5C9.00001 35.4364 7.00001 28.5005 7.00001 21.5C7.00001 14.1265 9.41762 10.0659 14.7778 5.77778C19.1614 2.27085 28.5176 4 34 4C51.9295 4 69.6124 5 87.4445 5C107.327 5 127.683 7 147.778 7C164.75 7 181.538 10 198.444 10C203.415 10 208.325 10.7403 213 11C216.083 11.1713 220.225 10.989 223 12.2222C226.789 13.9064 231.28 13.6958 235 15.5556C237.31 16.7104 242.468 17.5855 244 19.5C245.339 21.1742 247 20.4412 247 23V28C247 31.5323 246 34.6111 246 38C246 45.4857 245 52.4369 245 60V81.5C245 88.8829 243 95.1704 243 102.5C243 120.07 226.21 119 213 119C206.028 119 199.557 118 192.5 118C189.347 118 185.916 117 182.5 117C179.386 117 175.536 117.619 172.5 116.944C168.944 116.154 165.772 116 162 116C160.483 116 152.782 114.718 152.222 115.222C148.507 118.566 142.587 128.013 142 133C141.658 135.911 137.818 139.386 136.944 142.444C136.391 144.382 133.165 148.668 131.5 150C128.847 152.123 127.657 156.228 124.556 158C123.197 158.776 123.45 160.21 122.5 158.5C121.542 156.776 120.458 155.224 119.5 153.5Z" fill="white" stroke="black" stroke-width="7" stroke-linecap="round"/>
</svg>
