<svg width="254" height="165" viewBox="0 0 254 165" fill="none" xmlns="http://www.w3.org/2000/svg">
<path d="M8.64806 28.9358C6.77199 24.058 4 16.6453 4 11.4162C4 10.317 4.10675 7.8403 5 7.1257C5.51987 6.7098 9.69931 5.19204 10.6278 5.3861C13.2266 4.37136 18.1646 4.98044 19.7319 4.98044C24.6267 4.98044 31.6972 6.31128 36.1789 4.42426C38.8647 3.2934 42.8197 4.76105 45.5147 4.94071C50.0386 5.24231 54.8757 5.69552 59.3794 5.69552C83.3731 5.69552 107.491 7.88576 131.285 10.86C156.767 14.0453 183.015 14.9916 208.674 14.9916C222.901 14.9916 240.044 12.234 248.877 26.1152C250.057 27.969 249.275 32.1962 249.275 34.299V44.3102C249.275 52.7587 247.047 61.3298 246.374 69.7355C245.771 77.2812 246.515 85.4712 244.428 92.7771C242.784 98.5317 240.845 105.145 237.833 110.416L237.766 110.534C235.645 114.245 234.109 116.934 229.967 119.235C224.156 122.464 217.489 120.824 211.017 120.824C200.92 120.824 190.85 119.394 180.666 119.394C172.168 119.394 162.693 118.35 154.883 122.255C148.345 125.524 146.191 131.853 143.084 138.066C139.434 145.367 136.036 155.097 128.981 159.439C122.902 163.18 119.298 157.055 116.984 151.732C114.7 146.479 111.29 141.138 108.363 136.199C106.266 132.661 103.544 128.265 100.537 125.472C93.4487 118.891 82.089 120.824 72.9661 120.824C65.1175 120.824 55.9526 118.553 48.2956 120.467C43.7079 121.614 38.6111 121.148 33.8747 122.096C29.9339 122.884 27.1347 123.028 23.2676 122.255C19.2863 121.458 12.6877 118.708 11.3098 114.23C9.09747 107.04 11.8659 97.4196 11.8659 90.0757C11.8659 84.315 12.581 78.7026 12.581 72.9136C12.581 62.6013 11.5331 52.3267 11.1509 42.006C11.0103 38.2102 10.0047 32.4632 8.64806 28.9358Z" fill="white"/>
<path d="M4 11.4162C4 16.6453 6.77199 24.058 8.64806 28.9358C10.0047 32.4632 11.0103 38.2102 11.1509 42.006C11.5331 52.3267 12.581 62.6013 12.581 72.9136C12.581 78.7026 11.8659 84.315 11.8659 90.0757C11.8659 97.4196 9.09747 107.04 11.3098 114.23C12.6877 118.708 19.2863 121.458 23.2676 122.255C27.1347 123.028 29.9339 122.884 33.8747 122.096C38.6111 121.148 43.7079 121.614 48.2956 120.467C55.9526 118.553 65.1175 120.824 72.9661 120.824C82.089 120.824 93.4487 118.891 100.537 125.472C103.544 128.265 106.266 132.661 108.363 136.199C111.29 141.138 114.7 146.479 116.984 151.732C119.298 157.055 122.902 163.18 128.981 159.439C136.036 155.097 139.434 145.367 143.084 138.066C146.191 131.853 148.345 125.524 154.883 122.255C162.693 118.35 172.168 119.394 180.666 119.394C190.85 119.394 200.92 120.824 211.017 120.824C217.489 120.824 224.156 122.464 229.967 119.235C234.153 116.91 235.678 114.188 237.833 110.416C240.845 105.145 242.784 98.5317 244.428 92.7771C246.515 85.4712 245.771 77.2812 246.374 69.7355C247.047 61.3298 249.275 52.7587 249.275 44.3102C249.275 40.9731 249.275 37.636 249.275 34.299C249.275 32.1962 250.057 27.969 248.877 26.1152C240.044 12.234 222.901 14.9916 208.674 14.9916C183.015 14.9916 156.767 14.0453 131.285 10.86C107.491 7.88576 83.3731 5.69552 59.3794 5.69552C54.8757 5.69552 50.0386 5.24231 45.5147 4.94071C42.8197 4.76105 38.8647 3.2934 36.1789 4.42426C31.6972 6.31128 24.6267 4.98044 19.7319 4.98044C17.62 4.98044 9.38809 3.87455 9.0056 7.1257C14.5 3.5 5.76701 6.51209 5 7.1257C4.10675 7.8403 4 10.317 4 11.4162Z" stroke="black" stroke-width="7" stroke-linecap="round"/>
</svg>
