<svg width="248" height="164" viewBox="0 0 248 164" fill="none" xmlns="http://www.w3.org/2000/svg">
<path d="M9.48647 35.8954C9.00632 27.2528 6.67216 19.1869 6.67216 10.5667C6.67216 5.85645 25.3881 4 29.1866 4C45.8516 4 62.306 5.8762 78.906 5.8762C119.824 5.8762 159.971 16.1953 200.859 16.1953C210.472 16.1953 222.015 14.5262 231.243 17.6025C237.602 19.7221 235.868 23.1055 237.497 28.8076C237.87 30.1125 239.834 31.3593 240.207 32.6642C241.007 35.4615 240.928 38.6306 241.25 41.5241C242.175 49.8502 244.012 57.8622 244.012 66.3316C244.012 74.4759 244.351 82.5392 241.614 90.3574C239.468 96.49 238.3 102.715 237.393 109.067C236.783 113.341 231.186 116.188 229.002 118.917C227.181 121.194 214.627 119.285 212.116 119.856C207.152 120.984 201.926 120.14 196.898 121.054C192.919 121.778 187.798 122.109 183.765 122.201C174.427 122.413 163.148 120.268 154.163 122.93C151.584 123.694 150.457 123.236 150.202 126.683C149.992 129.507 146.295 135.346 144.365 137.419C140.82 141.226 138.83 145.921 135.401 149.614C132.792 152.424 130.18 153.901 126.958 155.972C124.216 157.735 121.131 159.083 117.889 159.673C115.875 160.039 114.07 155.463 113.095 154.044C107.252 145.547 102.991 135.253 96.313 127.36C92.4419 122.785 90.7668 119.386 84.4825 119.386C72.5163 119.386 60.4028 120.492 48.4698 121.315C38.6281 121.994 29.0069 123.139 19.0759 123.139C11.2167 123.139 6.71462 122.178 5.00443 114.696C1.42894 99.0532 8.54837 83.4461 8.54837 67.7909C8.54837 57.1737 10.067 46.345 9.48647 35.8954Z" fill="white" stroke="black" stroke-width="7" stroke-linecap="round"/>
</svg>
